# xmcd
#
# Track frame offsets:
#	150
#	16227
#	28080
#	49490
#	64557
#	79937
#	98126
#	111957
#	128735
#	136875
#	147402
#	164563
#	174599
#	182382
#	200724
#	210647
#
# Disc length: 3026 seconds
#
# Revision: 0
# Processed by: cddbd v1.5PL3 Copyright (c) Steve Scherf et al.
# Submitted via: dBpowerAMP V4.0
#
DISCID=e60bd010
DTITLE=Jorge Moisés - Só as Baixarias de Rodeio
DYEAR=2002
DGENRE=Sertanejo
TTITLE0=Ti Amo Porra
TTITLE1=Casa Bagunçada
TTITLE2=Rei da Zona
TTITLE3=O Jegue (Verso "O Jegue")
TTITLE4=Se Minha Mãe Não Tivesse Metido
TTITLE5=Você Tá Inchada
TTITLE6=Peida Guilhermina
TTITLE7=Na Minha Casa Tá Entrando Outro Macho
TTITLE8=Porteiro de Motel
TTITLE9=Corno Chorão
TTITLE10=Boizinho Espaia Merda
TTITLE11=Dona Maria Solta Meu Pinto
TTITLE12=Larga Dessa Muié Larga
TTITLE13=Chifre Nele
TTITLE14=Verso da Perereca - Rã e Perereca
TTITLE15=Chupa os Peito
EXTD=
EXTT0=
EXTT1=
EXTT2=
EXTT3=
EXTT4=
EXTT5=
EXTT6=
EXTT7=
EXTT8=
EXTT9=
EXTT10=
EXTT11=
EXTT12=
EXTT13=
EXTT14=
EXTT15=
PLAYORDER=
